<svg xmlns="http://www.w3.org/2000/svg" xmlns:xlink="http://www.w3.org/1999/xlink" id="Layer_1" width="100%" x="0" y="0" enable-background="new 0 0 1024 768" version="1.1" viewBox="0 0 1024 768" xml:space="preserve"><path fill="#000" stroke="none" d="M471.021851,423.118103 C491.314514,374.162750 511.436584,325.551392 531.614807,276.963287 C537.623901,262.493744 550.880249,255.241470 566.615967,257.417725 C589.340759,260.560516 612.087646,263.543304 634.814087,266.674438 C643.310669,267.845032 648.025574,272.847076 647.197021,281.221283 C645.823425,295.105164 643.605469,308.904785 641.796021,322.746796 C641.352722,326.138000 639.097900,326.360596 636.379272,326.352783 C619.218811,326.303436 602.058167,326.305695 584.897644,326.336700 C568.653992,326.366028 557.455261,334.987030 552.950195,350.605042 C552.300110,352.858582 552.812866,354.236786 554.664978,355.132507 C570.278442,362.683716 573.511108,375.798431 572.571960,391.797302 C572.075562,400.252411 570.075256,406.596893 562.592590,410.933105 C558.029907,413.577148 554.321777,417.558868 549.643494,419.929443 C547.386047,418.555664 548.010620,416.542389 547.992065,414.831604 C547.923645,408.501404 547.627441,402.143066 548.099854,395.846588 C548.535034,390.045654 545.729309,387.337616 540.146057,385.524353 C536.444885,395.652527 532.823486,405.618866 529.155334,415.567902 C527.970215,418.782104 530.782410,419.113281 532.438416,420.145020 C550.776672,431.569885 554.913757,454.822693 541.602234,471.750427 C538.874756,475.218781 535.584473,478.144714 531.661804,479.958130 C527.508484,481.878235 527.575012,484.056732 529.349854,487.731110 C533.096741,495.488190 536.384949,503.466858 540.278931,512.302063 C486.149353,512.302063 432.962830,512.302063 379.648163,512.302063 C380.074127,509.861328 381.837158,509.331512 383.138214,508.408295 C406.504761,491.828247 429.867767,475.242981 453.295135,458.749146 C456.279144,456.648254 458.287018,454.122986 459.629211,450.713715 C463.227509,441.573944 467.105713,432.544342 471.021851,423.118103 M580.704346,279.606018 C573.631348,276.669647 567.480164,279.231018 566.250061,285.624847 C565.309753,290.512177 567.448059,294.677002 571.875244,296.581268 C575.814697,298.275757 580.892822,296.876129 583.366638,293.414062 C586.204285,289.442841 585.402710,284.204407 580.704346,279.606018 z" opacity="1"/><path fill="#000" stroke="none" d="M580.609375,425.913055 C581.690369,421.512665 584.000366,423.344574 585.985291,424.415833 C598.529419,431.185913 604.927979,447.646820 600.633240,461.954346 C599.373718,466.150146 597.533752,470.077148 594.622192,473.355011 C592.569946,475.665558 592.416321,477.783600 593.700134,480.577118 C597.731018,489.348389 601.535645,498.223999 605.383545,507.078522 C606.028381,508.562317 607.076477,509.969543 606.723572,511.790039 C605.252930,513.300232 603.333618,512.950134 601.558472,512.953308 C586.402100,512.980164 571.244873,512.874451 556.089844,513.019104 C552.608215,513.052307 550.575378,511.949463 549.204102,508.674591 C545.432800,499.668091 541.394958,490.773193 537.538208,482.006042 C540.016541,479.513550 542.775940,479.247009 545.245483,478.395081 C562.450256,472.460175 572.944641,460.642029 576.726440,442.823914 C577.899292,437.297699 579.255066,431.810303 580.609375,425.913055 z" opacity="1"/><path fill="#000" stroke="none" d="M603.031860,383.054749 C603.024231,398.565399 597.456482,406.357239 582.305420,412.540588 C580.414673,408.982880 580.216187,357.045166 582.076111,352.550201 C596.159424,356.910278 602.985413,366.690704 603.031860,383.054749 z" opacity="1"/></svg>